<?xml version="1.0" encoding="UTF-8" standalone="no"?>
<svg
   xmlns:dc="http://purl.org/dc/elements/1.1/"
   xmlns:cc="http://creativecommons.org/ns#"
   xmlns:rdf="http://www.w3.org/1999/02/22-rdf-syntax-ns#"
   xmlns:svg="http://www.w3.org/2000/svg"
   xmlns="http://www.w3.org/2000/svg"
   viewBox="0 0 750.62665 782.388"
   height="782.388"
   width="750.62665"
   xml:space="preserve"
   id="svg2"
   version="1.1"><metadata
     id="metadata8"><rdf:RDF><cc:Work
         rdf:about=""><dc:format>image/svg+xml</dc:format><dc:type
           rdf:resource="http://purl.org/dc/dcmitype/StillImage" /></cc:Work></rdf:RDF></metadata><defs
     id="defs6"><clipPath
       id="clipPath18"
       clipPathUnits="userSpaceOnUse"><path
         id="path16"
         d="M 0,586.791 H 562.97 V 0 H 0 Z" /></clipPath><clipPath
       id="clipPath30"
       clipPathUnits="userSpaceOnUse"><path
         id="path28"
         d="m 293.355,586.791 c -31.653,0 -62.176,-5.006 -90.761,-14.292 v 0 c 14.131,-2.826 27.455,-6.379 39.89,-10.417 v 0 c 6.217,-2.018 12.274,-4.198 18.088,-6.54 v 0 c 5.814,-2.342 11.466,-4.765 16.875,-7.348 v 0 c 6.38,-3.069 12.597,-6.218 18.492,-9.609 v 0 c 6.621,-3.714 12.919,-7.59 18.894,-11.709 v 0 c 5.734,-3.956 11.225,-7.994 16.473,-12.353 v 0 c 13.243,-10.579 24.709,-22.125 34.802,-34.076 v 0 c 3.068,-3.714 6.056,-7.429 8.882,-11.224 v 0 c 2.826,-3.714 5.491,-7.59 8.075,-11.386 v 0 c 1.293,-1.937 2.584,-3.875 3.796,-5.813 v 0 c 1.937,-3.149 3.876,-6.218 5.651,-9.367 v 0 c 15.343,-26.484 24.871,-53.213 30.846,-76.549 v 0 l 139.613,43.12 C 518.075,513.634 414.315,586.791 293.355,586.791 Z" /></clipPath><linearGradient
       id="linearGradient46"
       spreadMethod="pad"
       gradientTransform="matrix(160.79224,-278.50031,-278.50031,-160.79224,303.25858,630.61719)"
       gradientUnits="userSpaceOnUse"
       y2="0"
       x2="1"
       y1="0"
       x1="0"><stop
         id="stop36"
         offset="0"
         style="stop-opacity:1;stop-color:#f5db69" /><stop
         id="stop38"
         offset="0.20802605"
         style="stop-opacity:1;stop-color:#f5c436" /><stop
         id="stop40"
         offset="0.612903"
         style="stop-opacity:1;stop-color:#f5c436" /><stop
         id="stop42"
         offset="0.79457048"
         style="stop-opacity:1;stop-color:#f5c436" /><stop
         id="stop44"
         offset="1"
         style="stop-opacity:1;stop-color:#b34439" /></linearGradient><clipPath
       id="clipPath56"
       clipPathUnits="userSpaceOnUse"><path
         id="path54"
         d="m 388.637,15.908 h 0.081 c 78.405,26.889 141.711,86.076 174.253,161.736 v 0 L 414.556,223.509 C 390.414,181.601 345.195,153.42 293.355,153.42 v 0 c -74.449,0 -135.332,58.139 -139.693,131.618 v 0 c 2.18,-44.087 24.063,-229.403 234.975,-269.13" /></clipPath><linearGradient
       id="linearGradient74"
       spreadMethod="pad"
       gradientTransform="matrix(-177.8447,-211.94704,-211.94704,177.8447,421.18961,296.61234)"
       gradientUnits="userSpaceOnUse"
       y2="0"
       x2="1"
       y1="0"
       x1="0"><stop
         id="stop62"
         offset="0"
         style="stop-opacity:1;stop-color:#2d8cc5" /><stop
         id="stop64"
         offset="0.102151"
         style="stop-opacity:1;stop-color:#2d8cc5" /><stop
         id="stop66"
         offset="0.40708823"
         style="stop-opacity:1;stop-color:#2d5692" /><stop
         id="stop68"
         offset="0.548387"
         style="stop-opacity:1;stop-color:#2d5692" /><stop
         id="stop70"
         offset="0.75201904"
         style="stop-opacity:1;stop-color:#2d5692" /><stop
         id="stop72"
         offset="1"
         style="stop-opacity:1;stop-color:#513039" /></linearGradient><clipPath
       id="clipPath84"
       clipPathUnits="userSpaceOnUse"><path
         id="path82"
         d="M 19.783,187.334 C 62.256,77.76 168.682,0 293.355,0 v 0 c 33.349,0 65.406,5.572 95.282,15.908 v 0 C 177.725,55.635 155.842,240.951 153.662,285.038 v 0 c -0.081,1.696 -0.162,3.149 -0.162,4.361 v 0 c -0.08,3.31 -0.08,5.087 -0.08,5.087 v 0 c 0.484,66.212 46.995,121.525 109.089,135.413 v 0 C 189.479,428.492 57.75,357.682 19.783,187.334" /></clipPath><linearGradient
       id="linearGradient100"
       spreadMethod="pad"
       gradientTransform="matrix(-283.0163,337.28567,337.28567,283.0163,381.55011,9.9608307)"
       gradientUnits="userSpaceOnUse"
       y2="0"
       x2="1"
       y1="0"
       x1="0"><stop
         id="stop90"
         offset="0"
         style="stop-opacity:1;stop-color:#e65f7e" /><stop
         id="stop92"
         offset="0.23025358"
         style="stop-opacity:1;stop-color:#ee4071" /><stop
         id="stop94"
         offset="0.483871"
         style="stop-opacity:1;stop-color:#ee4071" /><stop
         id="stop96"
         offset="0.72539026"
         style="stop-opacity:1;stop-color:#ee4071" /><stop
         id="stop98"
         offset="1"
         style="stop-opacity:1;stop-color:#362d2d" /></linearGradient><linearGradient
       id="linearGradient130"
       spreadMethod="pad"
       gradientTransform="matrix(320.38956,320.38956,320.38956,-320.38956,14.135588,192.98157)"
       gradientUnits="userSpaceOnUse"
       y2="0"
       x2="1"
       y1="0"
       x1="0"><stop
         id="stop116"
         offset="0"
         style="stop-opacity:1;stop-color:#e86654" /><stop
         id="stop118"
         offset="0.1368115"
         style="stop-opacity:1;stop-color:#e34240" /><stop
         id="stop120"
         offset="0.333333"
         style="stop-opacity:1;stop-color:#e34240" /><stop
         id="stop122"
         offset="0.51992138"
         style="stop-opacity:1;stop-color:#e34240" /><stop
         id="stop124"
         offset="0.731183"
         style="stop-opacity:1;stop-color:#c53639" /><stop
         id="stop126"
         offset="0.93791569"
         style="stop-opacity:1;stop-color:#c53639" /><stop
         id="stop128"
         offset="1"
         style="stop-opacity:1;stop-color:#572f2f" /></linearGradient></defs><g
     transform="matrix(1.3333333,0,0,-1.3333333,0,782.388)"
     id="g10"><g
       id="g12"><g
         clip-path="url(#clipPath18)"
         id="g14"><g
           transform="translate(293.3553,153.42)"
           id="g20"><path
             id="path22"
             style="fill:#c4393d;fill-opacity:1;fill-rule:nonzero;stroke:none"
             d="m 0,0 c -74.449,0 -135.333,58.138 -139.693,131.619 -0.081,1.695 -0.161,3.148 -0.161,4.36 -0.081,3.31 -0.081,5.087 -0.081,5.087 0.484,66.213 46.995,121.525 109.089,135.413 9.932,2.261 20.268,3.472 30.846,3.472 89.253,0 130.003,-67.262 130.003,-67.262 l 135.689,41.907 c -82.233,154.912 -298.035,166.993 -345.705,167.745 -3.611,-1.02 -7.194,-2.108 -10.747,-3.262 h -0.081 c -117.568,-38.355 -202.514,-148.737 -202.514,-279.063 0,-37.386 7.025,-73.157 19.783,-106.102 C -231.099,-75.66 -124.674,-153.42 0,-153.42 c 33.348,0 65.405,5.572 95.282,15.907 h 0.081 c 78.405,26.89 141.711,86.077 174.252,161.737 L 121.201,70.089 C 97.058,28.181 51.84,0 0,0" /></g></g></g><g
       id="g24"><g
         clip-path="url(#clipPath30)"
         id="g26"><g
           id="g32"><g
             id="g34"><path
               id="path48"
               style="fill:url(#linearGradient46);stroke:none"
               d="m 293.355,586.791 c -31.653,0 -62.176,-5.006 -90.761,-14.292 v 0 c 14.131,-2.826 27.455,-6.379 39.89,-10.417 v 0 c 6.217,-2.018 12.274,-4.198 18.088,-6.54 v 0 c 5.814,-2.342 11.466,-4.765 16.875,-7.348 v 0 c 6.38,-3.069 12.597,-6.218 18.492,-9.609 v 0 c 6.621,-3.714 12.919,-7.59 18.894,-11.709 v 0 c 5.734,-3.956 11.225,-7.994 16.473,-12.353 v 0 c 13.243,-10.579 24.709,-22.125 34.802,-34.076 v 0 c 3.068,-3.714 6.056,-7.429 8.882,-11.224 v 0 c 2.826,-3.714 5.491,-7.59 8.075,-11.386 v 0 c 1.293,-1.937 2.584,-3.875 3.796,-5.813 v 0 c 1.937,-3.149 3.876,-6.218 5.651,-9.367 v 0 c 15.343,-26.484 24.871,-53.213 30.846,-76.549 v 0 l 139.613,43.12 C 518.075,513.634 414.315,586.791 293.355,586.791 Z" /></g></g></g></g><g
       id="g50"><g
         clip-path="url(#clipPath56)"
         id="g52"><g
           id="g58"><g
             id="g60"><path
               id="path76"
               style="fill:url(#linearGradient74);stroke:none"
               d="m 388.637,15.908 h 0.081 c 78.405,26.889 141.711,86.076 174.253,161.736 v 0 L 414.556,223.509 C 390.414,181.601 345.195,153.42 293.355,153.42 v 0 c -74.449,0 -135.332,58.139 -139.693,131.618 v 0 c 2.18,-44.087 24.063,-229.403 234.975,-269.13" /></g></g></g></g><g
       id="g78"><g
         clip-path="url(#clipPath84)"
         id="g80"><g
           id="g86"><g
             id="g88"><path
               id="path102"
               style="fill:url(#linearGradient100);stroke:none"
               d="M 19.783,187.334 C 62.256,77.76 168.682,0 293.355,0 v 0 c 33.349,0 65.406,5.572 95.282,15.908 v 0 C 177.725,55.635 155.842,240.951 153.662,285.038 v 0 c -0.081,1.696 -0.162,3.149 -0.162,4.361 v 0 c -0.08,3.31 -0.08,5.087 -0.08,5.087 v 0 c 0.484,66.212 46.995,121.525 109.089,135.413 v 0 C 189.479,428.492 57.75,357.682 19.783,187.334" /></g></g></g></g><g
       id="g104"><g
         id="g106"><g
           id="g112"><g
             id="g114"><path
               id="path132"
               style="fill:url(#linearGradient130);stroke:none"
               d="M 202.514,572.499 C 84.946,534.144 0,423.762 0,293.436 v 0 C 0,256.05 7.025,220.279 19.783,187.334 v 0 c 42.654,170.348 174.382,240.117 242.726,242.565 v 0 c 9.933,2.261 20.268,3.473 30.846,3.473 v 0 c 89.253,0 130.003,-67.264 130.003,-67.264 v 0 c -5.975,23.336 -15.503,50.065 -30.846,76.549 v 0 c -1.775,3.149 -3.714,6.218 -5.651,9.367 v 0 c -1.212,1.938 -2.503,3.876 -3.796,5.813 v 0 c -2.584,3.796 -5.249,7.672 -8.075,11.386 v 0 c -2.826,3.795 -5.814,7.51 -8.882,11.224 v 0 c -10.093,11.951 -21.559,23.497 -34.802,34.076 v 0 c -5.248,4.359 -10.739,8.397 -16.473,12.353 v 0 c -5.975,4.119 -12.273,7.995 -18.894,11.709 v 0 c -5.894,3.391 -12.112,6.54 -18.492,9.609 v 0 c -5.409,2.583 -11.061,5.006 -16.875,7.348 v 0 c -5.814,2.342 -11.871,4.522 -18.088,6.54 v 0 c -12.435,4.038 -25.759,7.591 -39.89,10.417 v 0 z" /></g></g></g></g></g></svg>